<?xml version="1.0" encoding="UTF-8"?>
<svg id="Layer_1" data-name="Layer 1" xmlns="http://www.w3.org/2000/svg" viewBox="0 0 292.26 55.38">
  <defs>
    <style>
      .cls-1 {
        fill: #61b5b8;
        stroke-width: 0px;
      }
    </style>
  </defs>
  <path class="cls-1" d="m35.28,29.28l-.54,11.46c-.78.96-1.98,1.86-3.66,2.46H.78l-.78-4.98,4.98-.78c.18-6.9.24-10.86.24-15.48,0-5.58-.06-10.14-.24-15.6l-4.98-.78L.78.6h33.9l.6,1.32-2.28,12.18c-1.32.6-2.58.6-3.9,0l-1.44-7.02-13.74-.12c-.18,4.32-.18,8.76-.18,13.14l12.12-1.02c.6,1.38.6,3.96,0,5.82l-12.12.06c0,3.48.06,7.5.18,11.88l14.76-.12,2.76-7.44c1.32-.6,2.52-.6,3.84,0Z"/>
  <path class="cls-1" d="m69.48,43.2h-9.36c-1.32-1.32-1.98-2.58-2.34-3.72-2.64,2.4-6.06,4.32-9.9,4.32-5.52,0-8.7-3.96-8.7-8.34,0-4.8,3.9-8.7,11.58-8.7,1.86,0,4.38.18,6.6.6v-1.26c-.12-3.42-1.14-5.94-2.64-7.14-.72-.3-1.92-.42-2.76-.42-1.38,0-3,.24-4.26.72l-.84,4.44c-1.32.66-2.94.66-4.26,0l-1.38-6.66.6-1.08c2.76-1.62,7.92-2.76,11.7-2.76,8.16,0,12.3,5.34,12.06,13.68-.12,2.88-.18,6.84-.06,11.1,1.26.3,2.52.36,3.96.48.48,1.56.48,3.18,0,4.74Zm-17.46-4.5c1.86,0,4.02-.9,5.4-1.8-.12-1.92-.12-3.84-.06-6.6-2.28-.12-4.98.06-7.2.48-1.68.78-2.46,2.28-2.46,3.9,0,2.64,1.92,4.02,4.32,4.02Z"/>
  <path class="cls-1" d="m93.84,41.46c-1.5,1.32-5.7,2.34-8.76,2.34-5.7,0-9.54-3.6-9.6-12v-12.6l-5.1.06c-.3-1.14-.3-3.6,0-4.74l5.22-.66,1.8-7.92h6.36v7.86h9.06c.6,1.38.6,3.42,0,5.16l-9.12.12v10.68c0,5.52.9,8.46,4.44,8.46,1.14,0,2.88-.36,4.14-1.2,1.2.9,1.92,2.52,1.56,4.44Z"/>
  <path class="cls-1" d="m95.76,28.5c0-9.18,6.84-15.3,16.5-15.3,8.16,0,14.04,6.12,14.04,15.3s-6.96,15.3-16.74,15.3c-8.04,0-13.8-6.12-13.8-15.3Zm18.84,9.18c1.8-1.38,3.18-5.22,3.18-9.18,0-5.7-2.7-9.78-6.9-9.78-.9,0-2.28.18-3.42.54-1.92,1.38-3.24,5.28-3.24,9.24,0,5.76,2.7,9.78,6.9,9.78.84,0,2.22-.18,3.48-.6Z"/>
  <path class="cls-1" d="m164.16,29.28l-.54,11.46c-.78.96-1.98,1.86-3.66,2.46h-30.3l-.78-4.98,4.98-.78c.18-6.9.24-10.86.24-15.48,0-5.58-.06-10.14-.24-15.6l-4.98-.78.78-4.98h33.9l.6,1.32-2.28,12.18c-1.32.6-2.58.6-3.9,0l-1.44-7.02-13.74-.12c-.18,4.32-.18,8.76-.18,13.14l12.12-1.02c.6,1.38.6,3.96,0,5.82l-12.12.06c0,3.48.06,7.5.18,11.88l14.76-.12,2.76-7.44c1.32-.6,2.52-.6,3.84,0Z"/>
  <path class="cls-1" d="m204.42,43.2h-12.18l-.66-.54c.12-4.38.18-7.68.18-10.68v-4.86c0-5.28-2.22-7.86-4.98-7.86-.9,0-3.06.6-5.34,1.62-.06,2.52-.06,5.04-.06,7.62,0,3.12.06,6.24.12,9.36,1.44.42,2.28.48,3.9.6.48,1.56.48,3.18,0,4.74h-16.14l-.78-4.74,4.5-.78c.12-3,.18-6.06.18-9.18,0-2.76-.06-5.58-.12-7.86l-4.56-.54c-.72-1.32-.96-2.52-.78-3.84l12.6-3.12,1.32.66-.12,3.42c2.4-2.16,6.36-4.02,9.48-4.02,5.64,0,9.06,3.54,9.06,11.16,0,2.4-.06,4.86,0,7.62.06,1.8.06,3.78.12,6,1.44.3,2.82.3,4.26.48.48,1.56.48,3.18,0,4.74Z"/>
  <path class="cls-1" d="m218.46,13.14l1.32.66c-.24,5.16-.3,9.84-.3,14.7-.06,4.74-.12,10.38,0,16.14-.06,4.38-7.14,10.74-14.82,10.74-1.2-1.14-1.68-3.24-1.44-4.8,3.06.06,4.98-.54,6.36-1.14.66-.3,1.62-2.46,1.62-4.74.12-4.74.06-11.28.06-16.2,0-2.76,0-5.58-.12-7.86l-4.5-.54c-.72-1.32-1.02-2.52-.84-3.84l12.66-3.12Zm-9.06-8.34c0-2.58,2.82-4.8,6.6-4.8,2.88,0,4.38,1.68,4.38,4.38,0,2.94-3,4.92-6.42,4.92-2.76,0-4.56-1.62-4.56-4.5Z"/>
  <path class="cls-1" d="m225.12,28.5c0-9.18,6.84-15.3,16.5-15.3,8.16,0,14.04,6.12,14.04,15.3s-6.96,15.3-16.74,15.3c-8.04,0-13.8-6.12-13.8-15.3Zm18.84,9.18c1.8-1.38,3.18-5.22,3.18-9.18,0-5.7-2.7-9.78-6.9-9.78-.9,0-2.28.18-3.42.54-1.92,1.38-3.24,5.28-3.24,9.24,0,5.76,2.7,9.78,6.9,9.78.84,0,2.22-.18,3.48-.6Z"/>
  <path class="cls-1" d="m291.9,18.54c-1.38.12-2.64.18-3.96.6-3.48,7.74-6.9,15.72-9.9,23.4l-1.68,4.56c-2.16,5.28-5.64,8.22-7.8,8.22-1.74,0-8.22-.36-9.96-1.14-.66-2.4,0-6.24,1.62-8.16l1.8-.42c1.56,1.5,5.58,4.14,7.08,4.14.84,0,1.44-1.62,2.64-5.22-3.24-8.04-7.26-16.98-10.98-25.26l-4.14-.72.78-4.74h16.2c.48,1.56.48,3.18,0,4.74-1.14.06-2.58.06-3.9.3,1.86,5.16,4.02,10.44,6.18,15.54,2.1-4.86,4.02-10.14,5.76-15.18l-4.38-.66.78-4.74h13.86c.48,1.56.48,3.18,0,4.74Z"/>
</svg>